<svg width="187" height="110" viewBox="0 0 187 110" fill="none" xmlns="http://www.w3.org/2000/svg">
<g clip-path="url(#clip0_7_63)">
<path fill-rule="evenodd" clip-rule="evenodd" d="M112.072 13.8519C111.781 13.9371 111.706 14.0678 111.417 14.3147C111.184 14.5133 110.988 14.6543 110.763 14.8485C110.246 15.293 109.944 15.5679 109.49 15.9496C107.237 17.8447 104.181 20.7974 101.972 22.8652C98.5464 26.073 95.4589 29.1623 92.1723 32.3526C85.9741 38.3694 78.9502 45.5939 72.7464 51.3946C67.6195 56.1882 63.2222 60.4934 57.8646 65.2858C55.817 67.1172 54.5272 68.7855 51.7393 68.8819C47.1386 69.0408 41.0697 65.1245 37.9661 63.3439C35.254 61.788 28.0508 57.5519 24.5782 57.4343L27.1224 60.9293C28.9415 63.7051 32.0002 69.7511 33.4691 72.6931C38.5159 82.8004 45.3291 93.3843 54.0006 100.425C56.2178 102.225 58.2268 103.738 61.0431 105.442C62.2785 106.189 63.5388 106.811 64.9204 107.593C65.3993 107.864 68.7208 109.415 69.1302 109.414C68.2205 108.503 67.2848 107.389 66.5456 106.52C63.2444 102.638 55.9005 95.089 53.6948 91.2363C51.8427 88.0015 51.4171 86.0205 53.4752 82.7737C55.828 79.0622 61.3145 74.4694 64.7563 71.5255C73.1323 64.3616 80.6861 57.8733 89.4497 51.0717C93.6021 47.849 97.9194 44.5616 102.385 41.3751C106.766 38.2493 111.169 35.238 115.742 32.2151L122.647 27.8207C123.288 27.4533 129.577 23.7088 129.678 23.5833L135.832 20.1883C137.899 19.0207 139.906 18.046 142.095 16.8672C148.518 13.4086 161.273 7.77139 168.582 5.19278C170.982 4.34638 173.268 3.5469 175.695 2.71772L182.968 0.439403C182.38 0.136747 174.343 0.0534412 172.863 0.053226C166.904 0.0523649 163.248 0.218546 157.559 0.66801C153.205 1.012 145.103 1.90576 141.144 2.86302C140.431 3.03523 139.588 3.10885 138.87 3.29785C137.497 3.65948 135.926 3.90833 134.52 4.25834C131.621 4.98011 128.989 5.79788 126.264 6.61028C123.46 7.44635 120.924 8.43741 118.415 9.46958C116.932 10.0794 112.453 13.0741 112.072 13.8521L112.072 13.8519ZM170.276 28.2457L175.565 25.5448C177.399 24.6713 179.297 23.6671 181.025 22.8226C184.531 21.1094 186.55 15.5582 186.499 11.9995C185.88 12.0256 183.361 13.2194 182.678 13.4698C182.207 13.6418 181.773 13.7899 181.333 13.9771C178.21 15.3042 174.04 16.8735 171.079 18.2707C170.219 18.6765 169.388 19.0121 168.518 19.3853C167.835 19.6783 166.329 20.2692 166.049 20.6177C165.109 20.5699 145.972 30.053 143.587 31.2864C140.191 33.0425 135.92 35.1474 132.656 36.9635C132.269 37.1786 122.318 42.4453 121.922 42.9525C121.266 43.0618 114.445 47.1124 113.357 47.7267C99.8591 55.3429 84.9107 64.9239 71.9822 73.6923C68.3893 76.1293 63.8002 79.3263 60.1889 82.0472L57.2902 84.211C56.957 84.465 56.564 84.6334 56.3719 85.0146C57.6609 86.124 66.1997 89.6423 68.2367 90.3765C79.6698 94.497 90.3708 97.368 102.4 99.4325L110.034 100.6L116.047 101.13L111.15 100.698C112.084 100.805 113.012 100.957 113.921 101.044C115.266 101.172 116.601 101.282 117.986 101.421C120.595 101.682 123.624 101.861 126.306 101.908C129.64 101.967 131.477 102.137 134.211 100.982C136.33 100.088 138.054 98.9744 139.739 97.6835C146.013 92.8757 151.595 85.356 156.047 78.5505C160.708 71.4284 164.905 63.4709 168.523 55.5872C170.366 51.5719 172.095 47.3825 173.723 43.1148C174.548 40.9516 175.263 38.8625 176.009 36.5672C176.421 35.2965 177.923 30.6574 178.037 29.621C176.325 29.8547 146.402 45.9997 143.555 47.5283C139.693 49.6014 135.995 51.7609 132.249 53.7958C128.608 55.7734 124.756 58.1105 121.133 60.124C113.773 64.215 106.36 68.7721 99.0095 73.028C97.7491 73.7578 88.3891 79.2295 88.0529 79.6141C88.6821 79.5132 118.357 66.7691 119.076 66.4723C120.475 65.8937 149.612 53.3905 150.09 53.3696C149.923 54.0434 148.119 57.4102 147.664 58.3998C146.905 60.0487 145.991 61.9253 145.162 63.5652C140.463 72.8599 135.364 84.0205 125.105 88.1404L124.489 88.5104C123.939 88.5229 122.438 89.1334 121.775 89.3153C120.778 89.5891 119.814 89.7792 118.809 89.985C114.081 90.9532 106.933 90.4484 102.006 89.6776C96.3871 88.7984 92.4528 87.8121 87.0065 86.4956C85.7064 86.1813 76.3094 83.5416 75.7665 83.1829C76.0726 82.6493 81.4468 79.2056 81.9171 78.8788C92.3157 71.651 109.588 61.0301 120.821 54.639C122.01 53.9624 123.115 53.3478 124.202 52.7249C125.106 52.207 126.76 51.3436 127.49 50.8132L132.746 47.9304C134.523 46.9445 136.155 46.0903 138.027 45.022C141.566 43.0026 145.151 41.3098 148.634 39.3477C149.146 39.0593 169.037 28.6073 170.275 28.2459L170.276 28.2457ZM35.0616 82.8032C34.8549 82.3643 31.2633 78.5533 30.5497 77.7567C26.0202 72.6991 21.6291 67.9881 17.0766 62.6747C13.9049 58.973 11.0796 55.5622 8.38415 52.2918C7.25619 50.9234 1.06638 43.1533 0.120736 41.569C-2.51904e-05 41.8736 1.55825 48.2429 1.78836 49.0799C2.14117 50.3637 2.41412 51.5336 2.77404 52.8437C6.29139 65.6495 9.80638 70.4957 21.9184 76.6847C23.4104 77.4469 34.2563 82.693 35.0616 82.8032Z" fill="#E50007"/>
</g>
<defs>
<clipPath id="clip0_7_63">
<rect width="186.55" height="109.468" fill="white"/>
</clipPath>
</defs>
</svg>
