<svg width="529" height="532" viewBox="0 0 529 532" fill="none" xmlns="http://www.w3.org/2000/svg">
<path d="M61.7506 287.696L6.8473 333.494C1.66037 338.361 -0.492439 346.106 1.42489 351.378C3.3422 356.651 4.70112 363.12 7.81593 368.952C10.3723 375.982 16.9989 380.539 23.464 379.186L94.984 379.08C106.084 395.939 120.696 411.523 136.425 424.711L128.944 497.058C128.547 504.165 131.662 509.998 138.288 514.555C140.683 515.674 144.276 517.354 146.671 518.474C149.066 519.594 152.658 521.274 155.053 522.393C161.041 525.193 169.262 523.203 174.449 518.335L225.679 467.903C245.875 471.512 267.187 472.726 287.222 470.425L333.056 525.403C337.927 530.598 345.67 532.76 350.938 530.847C356.205 528.934 362.67 527.582 368.496 524.472C375.52 521.921 380.068 515.297 378.709 508.827L378.527 437.273C395.366 426.185 410.927 411.583 424.093 395.86L496.413 403.422C503.518 403.827 509.344 400.717 513.892 394.092C515.008 391.697 516.683 388.104 517.8 385.709C518.917 383.315 520.592 379.722 521.709 377.327C524.501 371.34 522.503 363.113 517.632 357.918L465.414 307.248C468.999 287.046 470.19 265.725 467.869 245.678L522.773 199.881C527.96 195.013 530.112 187.269 528.195 181.996C526.278 176.724 524.919 170.255 521.804 164.423C519.248 157.393 512.621 152.836 506.156 154.189L434.636 154.294C423.536 137.436 408.924 121.852 393.195 108.663L400.676 36.3165C401.632 28.0118 397.319 21.6198 391.89 17.6228C389.495 16.5029 385.903 14.8232 383.508 13.7033C381.113 12.5835 377.52 10.9037 375.125 9.78387C369.138 6.98428 360.917 8.97452 355.73 13.842L305.139 66.0317C284.943 62.4227 263.63 61.2087 243.596 63.5094L197.123 6.77419C192.252 1.57965 184.509 -0.582384 179.241 1.33025C173.973 3.24289 167.508 4.59559 161.682 7.70569C154.659 10.2559 150.111 16.8807 151.47 23.3504L151.651 94.9044C134.812 105.992 119.251 120.595 106.085 136.317L33.765 128.755C26.6607 128.351 20.8347 131.461 16.2869 138.086C15.1701 140.481 13.495 144.073 12.3782 146.468C11.2614 148.863 9.58625 152.455 8.46947 154.85C5.67753 160.837 7.67556 169.064 12.5463 174.259L64.7648 224.929C60.0622 247.526 59.4297 267.65 61.7506 287.696Z" fill="#183249"/>
</svg>
