<svg width="428" height="398" viewBox="0 0 428 398" fill="none" xmlns="http://www.w3.org/2000/svg">
<g clip-path="url(#clip0_192_441)">
<path d="M374.83 196.34L282.91 143.11C277.91 140.21 269.18 140.56 263.41 143.89L70.47 254.89C64.7 258.21 64.06 263.25 69.06 266.15L161 319.41C166 322.3 174.72 321.95 180.5 318.63L373.43 207.63C379.19 204.27 379.83 199.23 374.83 196.34Z" fill="#7DC3EA"/>
<path d="M169.51 309.75C166.308 309.834 163.14 309.09 160.31 307.59L68.38 254.35C65.77 252.84 64.33 250.68 64.33 248.28C64.33 245.49 66.33 242.74 69.8 240.75L262.73 129.75C268.97 126.16 278.14 125.82 283.58 128.97L375.51 182.21C378.13 183.72 379.56 185.88 379.56 188.28C379.56 191.07 377.56 193.82 374.1 195.81L181.16 306.81C177.589 308.762 173.58 309.774 169.51 309.75ZM274.41 129.49C270.803 129.458 267.248 130.346 264.08 132.07L71.15 243.1C68.54 244.6 67.05 246.49 67.05 248.29C67.05 250.09 68.51 251.29 69.74 252L161.67 305.24C166.28 307.91 174.42 307.56 179.81 304.46L372.74 193.46C375.35 191.96 376.84 190.07 376.84 188.28C376.84 186.49 375.38 185.28 374.16 184.56L282.23 131.28C279.818 130.029 277.126 129.413 274.41 129.49Z" fill="white"/>
<path d="M158.31 292.12L62.64 236.72C59.5 234.9 58.03 232.44 58.14 229.89V216.01L63.46 222.24C63.81 222.01 64.16 221.78 64.53 221.57L260.26 108.94C268.03 104.47 279.77 104 286.49 107.94L380.82 162.57C382.73 160.48 386.73 156.06 386.73 156.06V169.64C386.88 172.7 384.73 175.96 380.31 178.49L184.55 291.07C176.78 295.54 165 296 158.31 292.12Z" fill="#396CAA"/>
<path d="M106.58 258.13L112.09 261.32C112.82 261.74 113.41 261.32 113.41 260.32C113.402 259.825 113.279 259.338 113.05 258.899C112.821 258.459 112.492 258.08 112.09 257.79L106.58 254.61C105.85 254.19 105.25 254.61 105.25 255.61C105.26 256.105 105.385 256.59 105.616 257.028C105.847 257.465 106.177 257.843 106.58 258.13Z" fill="#173D7A"/>
<path d="M260.26 108.94C268.03 104.47 279.77 104 286.49 107.94L380.82 162.57C382.73 160.48 386.73 156.06 386.73 156.06V169.64C386.88 172.7 384.73 175.96 380.31 178.49L184.55 291.07C180.21 293.427 175.359 294.687 170.42 294.74L170.61 160.54L260.26 108.94Z" fill="url(#paint0_linear_192_441)"/>
<path d="M382.2 149.34L286.53 93.94C279.81 90.04 268.07 90.51 260.3 94.94L64.5799 207.62C56.8099 212.09 55.9599 218.87 62.6799 222.76L158.35 278.16C165.07 282.06 176.82 281.59 184.59 277.16L380.3 164.48C388.07 160 388.92 153.23 382.2 149.34Z" fill="#D4ECFF"/>
<path d="M158.28 279.65L62.61 224.24C59.14 222.24 57.71 219.46 58.18 216.63C58.35 218.93 59.82 221.11 62.68 222.76L158.35 278.16C165.07 282.06 176.82 281.59 184.59 277.16L380.3 164.48C384.06 162.31 386.19 159.61 386.63 156.95C386.86 160.06 384.69 163.39 380.23 165.95L184.51 278.6C176.74 283.07 165 283.54 158.28 279.65Z" fill="white"/>
<path d="M374.83 151.52L282.91 98.29C277.91 95.39 269.18 95.74 263.41 99.07L70.47 210.1C64.7 213.42 64.06 218.46 69.06 221.36L161 274.59C166 277.48 174.72 277.13 180.5 273.81L373.43 162.81C379.19 159.45 379.83 154.41 374.83 151.52Z" fill="url(#paint1_radial_192_441)"/>
<path d="M137.07 274C137.07 275 136.34 275.45 135.45 274.93C134.977 274.625 134.584 274.212 134.302 273.725C134.021 273.238 133.859 272.692 133.83 272.13C133.83 271.13 134.55 270.68 135.45 271.19C135.921 271.499 136.313 271.914 136.594 272.402C136.876 272.89 137.039 273.438 137.07 274Z" fill="#092E63"/>
<path d="M142 276.85C142 277.85 141.27 278.3 140.38 277.78C139.918 277.473 139.534 277.061 139.259 276.578C138.985 276.095 138.828 275.555 138.8 275C138.8 274 139.52 273.55 140.42 274.06C140.881 274.372 141.263 274.786 141.537 275.27C141.811 275.754 141.969 276.295 142 276.85Z" fill="#092E63"/>
<path d="M147 279.72C147 280.72 146.28 281.17 145.38 280.66C144.909 280.35 144.518 279.935 144.237 279.447C143.955 278.959 143.792 278.412 143.76 277.85C143.76 276.85 144.49 276.4 145.38 276.92C145.853 277.225 146.246 277.638 146.527 278.125C146.809 278.612 146.971 279.158 147 279.72Z" fill="#092E63"/>
<path d="M152 282.59C152 283.59 151.28 284.04 150.39 283.53C149.918 283.222 149.525 282.807 149.244 282.319C148.962 281.831 148.8 281.283 148.77 280.72C148.77 279.72 149.49 279.27 150.39 279.79C150.86 280.097 151.25 280.511 151.53 280.997C151.81 281.484 151.971 282.03 152 282.59Z" fill="#092E63"/>
<path d="M157 285.46C157 286.46 156.27 286.91 155.38 286.4C154.907 286.093 154.514 285.678 154.232 285.19C153.951 284.701 153.789 284.153 153.76 283.59C153.76 282.59 154.48 282.14 155.38 282.66C155.851 282.967 156.243 283.38 156.524 283.867C156.806 284.353 156.969 284.899 157 285.46Z" fill="#092E63"/>
<path d="M75.6899 225.2L152.8 269.85L366.3 146.58L289.2 101.93L75.6899 225.2Z" fill="url(#paint2_radial_192_441)"/>
<path d="M307.81 65C298.81 70.11 289.88 77.86 281.99 87.31C273.57 97.38 263.99 105.64 254.43 111.2C244.87 116.76 235.28 119.49 226.86 119.13C210.86 118.45 191.77 129.48 175.78 148.63C167.36 158.7 157.78 166.97 148.21 172.52C138.64 178.07 129.06 180.82 120.65 180.46C104.65 179.77 85.56 190.8 69.56 209.95C61.15 220 51.62 228.29 42 233.84V236.35L118.83 280.74L120.13 278.67L134.41 267.39L144.3 258.6L149.3 252.01L157.69 243.55L168.25 235.69L176.9 230.69L183.12 228.69L192.62 225.69L201.56 226.03L211.3 224.12L219.83 220.78L224.64 217.52L232.33 213.52L240.73 206.88L249.54 198.08L256.97 189.34L266.5 180.5L276.44 173.5L288.16 167.27L303.08 165.55L316.31 163.72L322.31 161.28L333.31 155.89L341.75 149.67L349.28 143.45L355.72 135.89L369.72 121.11L384.58 109.39L307.81 65Z" fill="url(#paint3_radial_192_441)"/>
<path d="M331.25 158.1C321.25 163.85 311.39 166.7 302.66 166.33C287.31 165.67 268.98 176.26 253.66 194.63C244.93 205.09 235.04 213.63 225.07 219.42C215.1 225.21 205.21 228.02 196.48 227.65C181.13 227 162.8 237.58 147.48 255.96C138.75 266.41 128.86 274.96 118.89 280.74V278.23C128.5 272.68 138.04 264.41 146.45 254.34C162.45 235.19 181.54 224.16 197.54 224.84C205.95 225.2 215.48 222.46 225.1 216.91C234.72 211.36 244.19 203.09 252.6 193C268.6 173.84 287.69 162.82 303.69 163.5C312.1 163.86 321.64 161.12 331.25 155.56C340.86 150 350.4 141.75 358.82 131.67C366.71 122.22 375.64 114.48 384.64 109.37V111.89L384.37 112.04C375.034 117.655 366.742 124.845 359.86 133.29C351.12 143.77 341.23 152.34 331.25 158.1Z" fill="#396CAA"/>
<path d="M193.54 136.19C188.833 140.133 184.483 144.483 180.54 149.19L194.33 157.19C198.289 152.466 202.656 148.099 207.38 144.14L193.59 136.14L193.54 136.19Z" fill="white"/>
<path d="M202.18 129.85C200.56 130.883 198.95 131.997 197.35 133.19L211.14 141.19C212.753 139.99 214.367 138.877 215.98 137.85L202.18 129.85Z" fill="white"/>
<path d="M210.89 125.14C209.283 125.86 207.667 126.667 206.04 127.56L210.91 130.39C212.52 129.49 214.14 128.69 215.75 127.97L210.89 125.14Z" fill="#FF2C9C"/>
<path d="M219.3 130C217.69 130.72 216.07 131.53 214.46 132.42L275.89 168.11C277.51 167.223 279.127 166.417 280.74 165.69L219.3 130Z" fill="#D4ECFF"/>
<path d="M219.46 122.17C217.856 122.563 216.274 123.041 214.72 123.6L219.58 126.43C221.137 125.871 222.723 125.393 224.33 125L219.46 122.17Z" fill="white"/>
<path d="M227.88 127.06C226.273 127.453 224.687 127.931 223.13 128.49L249.7 143.92C251.257 143.361 252.843 142.883 254.45 142.49L227.88 127.06Z" fill="#FF2C9C"/>
<path d="M258.23 144.69C256.622 145.082 255.037 145.559 253.48 146.12L284.57 164.18C286.124 163.621 287.706 163.143 289.31 162.75L258.23 144.69Z" fill="white"/>
<path d="M227.72 121.05C226.197 121.083 224.677 121.213 223.17 121.44L228 124.27C229.507 124.043 231.027 123.913 232.55 123.88L227.68 121.05H227.72Z" fill="white"/>
<path d="M289.56 152.19C288.107 152.368 286.644 152.458 285.18 152.46L290.05 155.29C291.511 155.288 292.97 155.197 294.42 155.02L289.56 152.19Z" fill="white"/>
<path d="M280.52 146.94C279.067 147.118 277.604 147.208 276.14 147.21L281 150C282.464 149.988 283.926 149.898 285.38 149.73L280.52 146.9V146.94Z" fill="#FF2C9C"/>
<path d="M244 125.71C242.55 125.887 241.091 125.978 239.63 125.98L272 144.78C273.464 144.778 274.927 144.688 276.38 144.51L244 125.71Z" fill="white"/>
<path d="M252.26 123.94C250.68 124.42 249.12 124.82 247.58 125.13L255.13 129.52C256.67 129.21 258.23 128.81 259.81 128.33L252.26 123.94Z" fill="white"/>
<path d="M264.68 131.16C263.1 131.64 261.54 132.04 260 132.35L280 143.93C281.54 143.62 283.1 143.22 284.68 142.74L264.68 131.16Z" fill="#D4ECFF"/>
<path d="M235.56 120.82C234.107 120.998 232.644 121.088 231.18 121.09L236.05 123.92C237.511 123.913 238.97 123.822 240.42 123.65L235.56 120.82Z" fill="#FF2C9C"/>
<path d="M243.85 119.05C242.26 119.53 240.7 119.93 239.17 120.24L244 123.07C245.54 122.76 247.1 122.36 248.69 121.88L243.82 119.05H243.85Z" fill="#D4ECFF"/>
<path d="M252.62 115.57C250.96 116.38 249.31 117.09 247.69 117.72L252.55 120.55C254.18 119.92 255.82 119.2 257.49 118.39L252.62 115.57Z" fill="white"/>
<path d="M261.7 110.36C260.273 111.313 258.833 112.207 257.38 113.04L256.64 113.46L261.5 116.29L262.24 115.87C263.7 115.03 265.143 114.137 266.57 113.19L261.7 110.36Z" fill="#FF2C9C"/>
<path d="M270.48 103.78C268.887 105.113 267.277 106.387 265.65 107.6L270.51 110.43C272.15 109.217 273.763 107.943 275.35 106.61L270.48 103.78Z" fill="white"/>
<path d="M278.79 96C277.3 97.53 275.79 99 274.23 100.44L279.09 103.27C280.637 101.843 282.157 100.363 283.65 98.83L278.79 96Z" fill="white"/>
<path d="M288.81 145.17C287.23 145.65 285.66 146.05 284.13 146.36L289 149.19C290.53 148.87 292.1 148.48 293.68 147.99L288.82 145.17H288.81Z" fill="white"/>
<path d="M297.59 141.68C295.917 142.487 294.27 143.207 292.65 143.84L297.51 146.66C299.13 146.03 300.78 145.32 302.45 144.51L297.59 141.68Z" fill="#FF2C9C"/>
<path d="M294.26 129.29C292.84 130.23 291.39 131.12 289.94 131.96L289.2 132.39L306.46 142.39C306.71 142.26 306.95 142.11 307.2 141.97C308.65 141.13 310.1 140.24 311.52 139.3L294.26 129.3V129.29Z" fill="white"/>
<path d="M303 122.71C301.42 124.04 299.8 125.32 298.17 126.52L315.43 136.52C317.057 135.307 318.667 134.037 320.26 132.71L303 122.71Z" fill="white"/>
<path d="M323.75 122.16C322.257 123.693 320.737 125.173 319.19 126.6L324.05 129.43C325.597 127.997 327.117 126.513 328.61 124.98L323.75 122.16Z" fill="#D4ECFF"/>
<path d="M297.85 150.42C296.26 150.91 294.7 151.3 293.17 151.61L298 154.44C299.54 154.13 301.1 153.73 302.69 153.25L297.82 150.42H297.85Z" fill="white"/>
<path d="M306.62 146.94C304.96 147.75 303.31 148.46 301.68 149.09L306.55 151.92C308.17 151.293 309.817 150.573 311.49 149.76L306.62 146.94Z" fill="white"/>
<path d="M315.7 141.73C314.267 142.677 312.827 143.57 311.38 144.41L310.64 144.83L315.5 147.66L316.24 147.24C317.7 146.4 319.143 145.507 320.57 144.56L315.7 141.73Z" fill="#D4ECFF"/>
<path d="M324.48 135.15C322.887 136.483 321.277 137.757 319.65 138.97L324.51 141.8C326.17 140.6 327.783 139.333 329.35 138L324.48 135.17V135.15Z" fill="white"/>
<path d="M332.79 127.41C331.3 128.94 329.79 130.41 328.23 131.86L333.09 134.68C334.637 133.247 336.157 131.767 337.65 130.24L332.79 127.41Z" fill="white"/>
<path d="M332.55 112.27C331.71 113.21 330.87 114.17 330.05 115.16C329.44 115.89 328.82 116.61 328.2 117.32L333.06 120.15C333.68 119.43 334.3 118.71 334.91 117.98C335.73 116.98 336.57 116.03 337.41 115.09L332.55 112.27Z" fill="white"/>
<path d="M341.59 117.52C340.75 118.46 339.91 119.43 339.09 120.41C338.48 121.14 337.86 121.86 337.24 122.57L342.1 125.4C342.73 124.69 343.34 123.97 343.95 123.24C344.78 122.24 345.61 121.24 346.45 120.35L341.59 117.52Z" fill="#D4ECFF"/>
<path d="M261 120.46C259.33 121.27 257.68 121.98 256.06 122.61L261 125.44C262.627 124.813 264.273 124.093 265.94 123.28L261 120.46Z" fill="white"/>
<path d="M269.7 125.49C268.04 126.297 266.393 127.017 264.76 127.65L288.47 141.41C290.09 140.78 291.74 140.07 293.41 139.26L269.7 125.49Z" fill="white"/>
<path d="M278.78 120.29C277.35 121.23 275.91 122.13 274.46 122.96L273.72 123.39L285 130C285.25 129.86 285.5 129.72 285.74 129.57C287.2 128.74 288.64 127.84 290.06 126.9L278.76 120.33L278.78 120.29Z" fill="#D4ECFF"/>
<path d="M287.56 113.71C285.97 115.04 284.36 116.32 282.72 117.53L294 124.1C295.63 122.89 297.25 121.61 298.83 120.28L287.53 113.71H287.56Z" fill="#FF2C9C"/>
<path d="M295.87 106C294.37 107.54 292.847 109.023 291.3 110.45L315 124.17C316.55 122.75 318.07 121.26 319.56 119.73L295.87 106Z" fill="#D4ECFF"/>
<path d="M304.67 96.07C303.82 97.07 302.99 97.98 302.17 98.97C301.56 99.69 300.94 100.42 300.32 101.13L324 114.89C324.63 114.18 325.24 113.46 325.85 112.73C326.68 111.73 327.51 110.78 328.35 109.84L304.65 96.07H304.67Z" fill="white"/>
<path d="M287.59 86.15C286.75 87.09 285.91 88.05 285.09 89.04C284.48 89.77 283.86 90.49 283.24 91.2L296.52 98.92C297.14 98.21 297.76 97.49 298.37 96.76C299.19 95.76 300.03 94.76 300.87 93.87L287.59 86.15Z" fill="#FF2C9C"/>
<path d="M270.11 115.25C268.69 116.203 267.25 117.097 265.79 117.93L265.05 118.35L269.92 121.18L270.66 120.76C272.11 119.92 273.55 119.02 274.98 118.08L270.11 115.25Z" fill="#FF2C9C"/>
<path d="M278.9 108.67C277.31 110.01 275.69 111.28 274.06 112.49L278.93 115.32C280.557 114.107 282.167 112.833 283.76 111.5L278.9 108.67Z" fill="white"/>
<path d="M287.2 100.93C285.71 102.46 284.2 103.93 282.64 105.37L287.51 108.2C289.05 106.77 290.58 105.29 292.07 103.76L287.2 100.93Z" fill="white"/>
<path d="M236.14 125.94C234.617 125.972 233.097 126.103 231.59 126.33L273 150.33C274.503 150.103 276.02 149.972 277.54 149.94L236.14 125.94Z" fill="#D4ECFF"/>
<path d="M281.72 152.42C280.197 152.453 278.677 152.583 277.17 152.81L293 162C294.507 161.773 296.027 161.643 297.55 161.61L281.7 152.4L281.72 152.42Z" fill="#D4ECFF"/>
<path d="M298.06 157.13C296.607 157.308 295.144 157.398 293.68 157.4L301 161.67C302.464 161.668 303.927 161.578 305.38 161.4L298.03 157.13H298.06Z" fill="white"/>
<path d="M306.35 155.36C304.76 155.85 303.2 156.24 301.67 156.55L309 160.82C310.53 160.51 312.09 160.12 313.68 159.63L306.33 155.36H306.35Z" fill="#D4ECFF"/>
<path d="M315.12 151.88C313.46 152.69 311.81 153.4 310.19 154.03L317.53 158.3C319.16 157.67 320.81 156.96 322.47 156.15L315.12 151.88Z" fill="#FF2C9C"/>
<path d="M324.2 146.68C322.767 147.62 321.327 148.51 319.88 149.35L319.14 149.77L326.49 154L327.23 153.58C328.677 152.74 330.117 151.85 331.55 150.91L324.2 146.64V146.68Z" fill="white"/>
<path d="M333 140.09C331.407 141.423 329.797 142.697 328.17 143.91L335.51 148.18C337.15 146.967 338.763 145.693 340.35 144.36L333 140.09Z" fill="white"/>
<path d="M341.29 132.35C339.8 133.88 338.29 135.35 336.73 136.8L344.08 141.07C345.62 139.64 347.14 138.15 348.64 136.62L341.29 132.35Z" fill="#D4ECFF"/>
<path d="M350.09 122.46C349.25 123.4 348.41 124.37 347.59 125.35C346.98 126.08 346.36 126.8 345.74 127.51L353.09 131.79C353.71 131.07 354.33 130.35 354.94 129.62C355.76 128.62 356.6 127.62 357.44 126.73L350.09 122.46Z" fill="#FF2C9C"/>
<path d="M341.86 103.06C340.28 104.427 338.72 105.873 337.18 107.4L362.07 121.86C363.61 120.34 365.167 118.893 366.74 117.52L341.86 103.06Z" fill="white"/>
<path d="M296.9 76.94C295.32 78.3133 293.76 79.76 292.22 81.28L333 105C334.54 103.48 336.1 102.033 337.68 100.66L296.9 76.94Z" fill="white"/>
<path d="M219.81 140.1C218.197 141.133 216.587 142.247 214.98 143.44L237.98 156.82C239.587 155.62 241.197 154.507 242.81 153.48L219.81 140.1Z" fill="#D4ECFF"/>
<path d="M246.71 155.72C245.09 156.753 243.48 157.863 241.88 159.05L252.52 165.24C254.127 164.053 255.737 162.943 257.35 161.91L246.71 155.72Z" fill="#FF2C9C"/>
<path d="M261.38 164.25C253.215 169.58 245.902 176.114 239.69 183.63L250.34 189.82C256.545 182.305 263.847 175.769 272 170.43L261.35 164.25H261.38Z" fill="#FF2C9C"/>
<path d="M211.17 146.44C206.465 150.385 202.115 154.735 198.17 159.44L235.71 181.25C239.669 176.523 244.036 172.152 248.76 168.19L211.22 146.39L211.17 146.44Z" fill="#D4ECFF"/>
<path d="M361.37 97.61C358.596 99.2266 355.924 101.013 353.37 102.96L301.75 73C304.306 71.0536 306.978 69.2637 309.75 67.64L361.33 97.64L361.37 97.61Z" fill="#D4ECFF"/>
<path d="M379.64 108.22C376.868 109.844 374.196 111.634 371.64 113.58L358.44 105.91C360.996 103.964 363.668 102.174 366.44 100.55L379.64 108.22Z" fill="#FF2C9C"/>
<path d="M70.26 236.28C67.4093 238.435 64.4305 240.415 61.34 242.21L47.54 234.21C50.6305 232.415 53.6093 230.435 56.46 228.28L70.26 236.28Z" fill="white"/>
<path d="M65 221.06C63.46 222.5 61.89 223.89 60.3 225.21L74.1 233.21C75.6934 231.877 77.26 230.493 78.8 229.06L65 221.06Z" fill="white"/>
<path d="M73 212.78C71.57 214.41 70.1 215.98 68.6 217.51L73.47 220.34C74.97 218.813 76.4333 217.237 77.86 215.61L73 212.78Z" fill="#FF2C9C"/>
<path d="M81.44 217.67C80.01 219.3 78.54 220.87 77.05 222.4L138.48 258.09C139.98 256.57 141.48 254.99 142.88 253.36L81.44 217.67Z" fill="#D4ECFF"/>
<path d="M81 203.86C79.4667 205.427 77.9633 207.067 76.49 208.78L81.36 211.61C82.83 209.9 84.36 208.26 85.86 206.69L81 203.86Z" fill="white"/>
<path d="M89.37 208.75C87.85 210.32 86.37 211.96 84.87 213.67L111.44 229.1C112.91 227.39 114.44 225.75 115.94 224.18L89.37 208.75Z" fill="#FF2C9C"/>
<path d="M119.72 226.38C118.19 227.95 116.72 229.58 115.21 231.29L146.3 249.36C147.78 247.653 149.283 246.013 150.81 244.44L119.72 226.38Z" fill="white"/>
<path d="M89.38 196.14C87.78 197.44 86.21 198.81 84.65 200.26L89.51 203.09C91.07 201.64 92.65 200.26 94.24 198.97L89.38 196.14Z" fill="white"/>
<path d="M152 221.31C150.39 222.31 148.77 223.4 147.16 224.57L152.03 227.4C153.637 226.227 155.25 225.14 156.87 224.14L152 221.31Z" fill="white"/>
<path d="M130.6 208.86C128.98 209.86 127.36 210.95 125.76 212.12L143.02 222.12C144.62 220.95 146.24 219.87 147.86 218.86L130.6 208.86Z" fill="#FF2C9C"/>
<path d="M106.45 194.83C104.83 195.83 103.217 196.917 101.61 198.09L121.61 209.69C123.21 208.53 124.83 207.44 126.45 206.44L106.45 194.83Z" fill="white"/>
<path d="M115.15 190.27C113.543 190.937 111.93 191.713 110.31 192.6L117.86 197C119.48 196.13 121.09 195.36 122.7 194.67L115.15 190.28V190.27Z" fill="white"/>
<path d="M127.57 197.49C125.96 198.18 124.35 198.95 122.73 199.82L130.28 204.21C131.9 203.337 133.513 202.56 135.12 201.88L127.57 197.49Z" fill="#D4ECFF"/>
<path d="M98 189.94C96.39 190.94 94.77 192.03 93.16 193.2L98.06 196C99.6667 194.833 101.28 193.747 102.9 192.74L98 189.94Z" fill="#FF2C9C"/>
<path d="M106.74 185.38C105.13 186.07 103.51 186.85 101.9 187.71L106.76 190.54C108.38 189.67 109.99 188.9 111.6 188.21L106.74 185.38Z" fill="#D4ECFF"/>
<path d="M115.3 182.57C113.697 182.931 112.115 183.378 110.56 183.91L115.42 186.74C116.976 186.211 118.558 185.764 120.16 185.4L115.3 182.57Z" fill="white"/>
<path d="M123.51 181.62C121.998 181.614 120.488 181.71 118.99 181.91L123.86 184.74C125.359 184.542 126.868 184.442 128.38 184.44L123.51 181.62Z" fill="#FF2C9C"/>
<path d="M131.35 181.31C129.891 181.508 128.422 181.625 126.95 181.66L131.81 184.49C133.285 184.451 134.757 184.334 136.22 184.14L131.35 181.31Z" fill="white"/>
<path d="M139.7 179.38C138.1 179.9 136.53 180.32 134.98 180.66L139.85 183.49C141.39 183.15 142.97 182.72 144.56 182.21L139.7 179.38Z" fill="white"/>
<path d="M139.3 204.31C137.687 204.977 136.073 205.753 134.46 206.64L151.72 216.64C153.34 215.78 154.953 215.003 156.56 214.31L139.3 204.31Z" fill="white"/>
<path d="M147.86 201.49C146.257 201.854 144.675 202.305 143.12 202.84L160.38 212.84C161.933 212.3 163.516 211.85 165.12 211.49L147.86 201.49Z" fill="#FF2C9C"/>
<path d="M168.48 207.74C166.983 207.726 165.486 207.812 164 208L168.86 210.82C170.363 210.63 171.875 210.533 173.39 210.53L168.53 207.71L168.48 207.74Z" fill="white"/>
<path d="M176.31 207.43C174.851 207.624 173.382 207.741 171.91 207.78L176.77 210.6C178.242 210.566 179.711 210.449 181.17 210.25L176.31 207.43Z" fill="white"/>
<path d="M184.66 205.5C183.06 206.02 181.49 206.44 179.95 206.78L184.81 209.6C186.35 209.27 187.92 208.84 189.52 208.33L184.66 205.5Z" fill="#D4ECFF"/>
<path d="M160.74 216.75C159.13 217.44 157.51 218.22 155.9 219.08L160.76 221.91C162.38 221.05 163.993 220.273 165.6 219.58L160.74 216.75Z" fill="white"/>
<path d="M169.3 213.94C167.697 214.301 166.115 214.748 164.56 215.28L169.42 218.11C170.976 217.581 172.558 217.134 174.16 216.77L169.3 213.94Z" fill="white"/>
<path d="M177.51 213C175.999 212.999 174.489 213.095 172.99 213.29L177.86 216.12C179.358 215.92 180.868 215.824 182.38 215.83L177.51 213Z" fill="#D4ECFF"/>
<path d="M185.35 212.68C183.891 212.878 182.422 212.995 180.95 213.03L185.81 215.86C187.285 215.821 188.757 215.704 190.22 215.51L185.35 212.68Z" fill="white"/>
<path d="M193.7 210.75C192.1 211.27 190.53 211.69 188.98 212.03L193.85 214.86C195.39 214.52 196.97 214.1 198.56 213.58L193.7 210.75Z" fill="white"/>
<path d="M194.58 201.3C192.9 202.167 191.233 202.953 189.58 203.66L194.44 206.48C196.08 205.78 197.74 205 199.44 204.12L194.58 201.3Z" fill="white"/>
<path d="M203.62 206.55C201.94 207.43 200.28 208.21 198.62 208.91L203.49 211.74C205.13 211.04 206.797 210.25 208.49 209.37L203.63 206.55H203.62Z" fill="#D4ECFF"/>
<path d="M123.71 187.46C122.118 187.825 120.546 188.272 119 188.8L123.87 191.63C125.425 191.098 127.007 190.651 128.61 190.29L123.74 187.46H123.71Z" fill="white"/>
<path d="M132.37 192.49C130.772 192.861 129.193 193.311 127.64 193.84L138.94 200.41C140.54 199.87 142.12 199.42 143.68 199.06L132.37 192.49Z" fill="white"/>
<path d="M140.59 191.54C139.078 191.542 137.569 191.642 136.07 191.84L159.77 205.6C161.272 205.401 162.785 205.304 164.3 205.31L140.59 191.54Z" fill="#D4ECFF"/>
<path d="M148.43 191.23C146.971 191.428 145.502 191.545 144.03 191.58L167.73 205.35C169.202 205.316 170.671 205.199 172.13 205L148.43 191.23Z" fill="#FF2C9C"/>
<path d="M156.77 189.31C155.18 189.82 153.61 190.25 152.06 190.59L175.77 204.35C177.31 204.01 178.88 203.59 180.48 203.07L156.77 189.31Z" fill="#D4ECFF"/>
<path d="M166.7 185.1C165.02 185.98 163.35 186.77 161.7 187.46L185.41 201.23C187.05 200.53 188.71 199.75 190.41 198.87L166.7 185.1Z" fill="white"/>
<path d="M149.62 175.18C147.94 176.06 146.28 176.84 144.62 177.54L157.9 185.25C159.553 184.583 161.22 183.797 162.9 182.89L149.62 175.18Z" fill="#FF2C9C"/>
<path d="M131.93 186.51C130.419 186.504 128.908 186.6 127.41 186.8L132.27 189.63C133.769 189.432 135.278 189.332 136.79 189.33L131.93 186.51Z" fill="#FF2C9C"/>
<path d="M139.77 186.2C138.308 186.399 136.835 186.516 135.36 186.55L140.23 189.38C141.702 189.34 143.17 189.223 144.63 189.03L139.77 186.2Z" fill="white"/>
<path d="M148.11 184.27C146.52 184.79 144.94 185.21 143.4 185.55L148.26 188.38C149.81 188.04 151.38 187.61 152.98 187.1L148.11 184.27Z" fill="white"/>
<path d="M97.7901 201C96.2034 202.333 94.6267 203.707 93.0601 205.12L134.47 229.12C136.03 227.673 137.607 226.3 139.2 225L97.7901 201Z" fill="#D4ECFF"/>
<path d="M143.38 227.51C141.78 228.81 140.21 230.18 138.65 231.63L154.49 240.84C156.05 239.387 157.627 238.013 159.22 236.72L143.38 227.51Z" fill="#D4ECFF"/>
<path d="M160.53 226.25C158.92 227.25 157.3 228.34 155.69 229.51L163.04 233.78C164.653 232.613 166.267 231.527 167.88 230.52L160.53 226.25Z" fill="white"/>
<path d="M169.24 221.69C167.63 222.38 166.01 223.16 164.4 224.02L171.75 228.29C173.36 227.43 174.98 226.65 176.58 225.96L169.24 221.69Z" fill="#D4ECFF"/>
<path d="M177.8 218.88C176.197 219.241 174.615 219.688 173.06 220.22L180.41 224.49C181.962 223.96 183.541 223.512 185.14 223.15L177.8 218.88Z" fill="#FF2C9C"/>
<path d="M186 217.93C184.485 217.928 182.972 218.025 181.47 218.22L188.82 222.49C190.319 222.295 191.829 222.199 193.34 222.2L186 217.93Z" fill="white"/>
<path d="M193.85 217.62C192.391 217.819 190.922 217.936 189.45 217.97L196.8 222.24C198.272 222.205 199.741 222.088 201.2 221.89L193.85 217.62Z" fill="white"/>
<path d="M202.2 215.69C200.6 216.21 199.03 216.63 197.49 216.97L204.83 221.24C206.42 220.892 207.992 220.465 209.54 219.96L202.2 215.69Z" fill="#D4ECFF"/>
<path d="M212.12 211.49C210.44 212.37 208.78 213.15 207.12 213.85L214.46 218.12C216.1 217.42 217.77 216.64 219.46 215.76L212.11 211.49H212.12Z" fill="#FF2C9C"/>
<path d="M204.73 195C203.09 196.19 201.42 197.31 199.73 198.35L224.62 212.81C226.3 211.81 227.96 210.65 229.62 209.47L204.73 195Z" fill="white"/>
<path d="M159.77 168.88C158.13 170.06 156.46 171.18 154.77 172.22L195.55 195.91C197.23 194.91 198.9 193.75 200.55 192.57L159.77 168.88Z" fill="white"/>
<path d="M82.65 231.31C81.11 232.75 79.5433 234.133 77.95 235.46L100.95 248.84C102.537 247.507 104.103 246.123 105.65 244.69L82.65 231.31Z" fill="#D4ECFF"/>
<path d="M109.54 246.92C108 248.37 106.43 249.75 104.84 251.08L115.49 257.27C117.083 255.937 118.65 254.55 120.19 253.11L109.54 246.92Z" fill="#FF2C9C"/>
<path d="M134.86 261.64C129.553 266.664 123.692 271.069 117.39 274.77L106.74 268.58C113.048 264.888 118.909 260.482 124.21 255.45L134.86 261.64Z" fill="#FF2C9C"/>
<path d="M111.64 260.32C108.787 262.472 105.808 264.452 102.72 266.25L65.1801 244.44C68.2705 242.645 71.2493 240.665 74.1001 238.51L111.64 260.32Z" fill="#D4ECFF"/>
<path d="M177.13 153.12C173.298 157.405 169.149 161.396 164.72 165.06L216.3 195.06C220.732 191.398 224.88 187.407 228.71 183.12L177.13 153.12Z" fill="#D4ECFF"/>
<path d="M233.79 186C229.954 190.303 225.802 194.314 221.37 198L234.57 205.67C239.007 201.997 243.162 197.996 247 193.7L233.79 186Z" fill="#FF2C9C"/>
<path d="M42 233.84L118.83 278.23V280.74L42 236.35V233.84Z" fill="#B3E0FF"/>
<path d="M199.74 252.75C199.666 252.749 199.593 252.729 199.528 252.693C199.463 252.656 199.409 252.603 199.37 252.54C199.341 252.491 199.323 252.436 199.316 252.38C199.308 252.324 199.312 252.266 199.327 252.212C199.342 252.157 199.367 252.105 199.402 252.06C199.437 252.016 199.481 251.978 199.53 251.95L336.86 172.66C336.959 172.608 337.074 172.596 337.182 172.625C337.289 172.655 337.382 172.725 337.44 172.82C337.469 172.868 337.488 172.921 337.496 172.976C337.504 173.031 337.501 173.087 337.487 173.141C337.473 173.195 337.448 173.246 337.414 173.29C337.381 173.335 337.338 173.372 337.29 173.4L200 252.69C199.923 252.74 199.831 252.761 199.74 252.75Z" fill="white"/>
<path d="M250 223.31C249.136 222.871 248.18 222.642 247.21 222.642C246.24 222.642 245.285 222.871 244.42 223.31L228.95 232.24C227.41 233.13 227.41 234.58 228.95 235.47C229.816 235.904 230.771 236.13 231.74 236.13C232.709 236.13 233.664 235.904 234.53 235.47L250 226.53C251.51 225.64 251.51 224.2 250 223.31Z" fill="#D4ECFF"/>
<path d="M259.16 221.21C258.31 221.639 257.372 221.862 256.42 221.862C255.468 221.862 254.53 221.639 253.68 221.21C252.17 220.33 252.17 218.92 253.68 218.04C254.53 217.611 255.468 217.388 256.42 217.388C257.372 217.388 258.31 217.611 259.16 218.04C260.68 218.92 260.68 220.33 259.16 221.21Z" fill="#FF2C9C"/>
<g clip-path="url(#clip1_192_441)">
<path d="M65.17 172.75L47.71 162.67L65.17 152.6L82.62 162.67L65.17 172.75Z" fill="#7DC3EA"/>
<path d="M65.17 166.75L45 155.11L65.17 143.46L85.34 155.11L65.17 166.75ZM50.43 155.11L65.17 163.62L79.91 155.11L65.17 146.6L50.43 155.11Z" fill="white"/>
<path d="M82.62 147.23L65.17 157.31V137.16L82.62 127.08V147.23Z" fill="url(#paint4_radial_192_441)"/>
<path d="M65.17 137.16L47.71 127.08L65.17 117L82.62 127.08L65.17 137.16Z" fill="url(#paint5_linear_192_441)"/>
<path d="M65.17 157.31L47.71 147.23V127.08L65.17 137.16V157.31Z" fill="url(#paint6_radial_192_441)"/>
<path d="M58.88 146.42L54 143.6V137.97L58.88 140.78V146.42Z" fill="white"/>
</g>
<g clip-path="url(#clip2_192_441)">
<path d="M358.17 313.75L340.71 303.67L358.17 293.6L375.62 303.67L358.17 313.75Z" fill="#7DC3EA"/>
<path d="M358.17 307.75L338 296.11L358.17 284.46L378.34 296.11L358.17 307.75ZM343.43 296.11L358.17 304.62L372.91 296.11L358.17 287.6L343.43 296.11Z" fill="white"/>
<path d="M375.62 288.23L358.17 298.31V278.16L375.62 268.08V288.23Z" fill="url(#paint7_radial_192_441)"/>
<path d="M358.17 278.16L340.71 268.08L358.17 258L375.62 268.08L358.17 278.16Z" fill="url(#paint8_linear_192_441)"/>
<path d="M358.17 298.31L340.71 288.23V268.08L358.17 278.16V298.31Z" fill="url(#paint9_radial_192_441)"/>
<path d="M351.88 287.42L347 284.6V278.97L351.88 281.78V287.42Z" fill="white"/>
</g>
</g>
<g clip-path="url(#clip3_192_441)">
<path d="M92.55 370.38L68.31 356.38C66.82 355.52 67 354 68.73 353L92.13 339.49C93.0125 338.999 93.9976 338.722 95.0065 338.681C96.0154 338.639 97.02 338.834 97.94 339.25L122.17 353.25C123.66 354.11 123.48 355.61 121.76 356.6L98.35 370.13C97.47 370.622 96.487 370.901 95.4797 370.944C94.4724 370.988 93.469 370.795 92.55 370.38Z" fill="#7DC3EA"/>
<path d="M95.08 364.6C93.9732 364.627 92.8781 364.369 91.9 363.85L67.66 349.85C67.1767 349.609 66.7674 349.242 66.4753 348.788C66.1831 348.334 66.0189 347.81 66 347.27C66.0519 346.632 66.2704 346.02 66.6337 345.493C66.997 344.967 67.4923 344.545 68.07 344.27L91.48 330.73C92.5601 330.126 93.769 329.789 95.0059 329.747C96.2427 329.705 97.4716 329.96 98.59 330.49L122.83 344.49C123.315 344.732 123.725 345.1 124.017 345.556C124.31 346.012 124.473 346.539 124.49 347.08C124.438 347.719 124.219 348.333 123.853 348.86C123.488 349.386 122.99 349.807 122.41 350.08L99 363.61C97.7975 364.265 96.4492 364.605 95.08 364.6ZM95.43 332.34C94.509 332.328 93.6003 332.552 92.79 332.99L69.38 346.5C68.74 346.87 68.61 347.2 68.61 347.27C68.61 347.34 68.7 347.44 68.96 347.59L93.2 361.59C93.9208 361.889 94.6995 362.021 95.4785 361.978C96.2575 361.935 97.0167 361.717 97.7 361.34L121.1 347.83C121.74 347.46 121.87 347.14 121.87 347.07C121.87 347 121.79 346.9 121.52 346.74L97.28 332.74C96.7065 332.454 96.0704 332.316 95.43 332.34Z" fill="white"/>
<path d="M123.17 338.49V330.13H104.42L97.94 326.39C97.0208 325.971 96.0157 325.774 95.0063 325.816C93.9968 325.857 93.0114 326.136 92.13 326.63L86.08 330.12H67.31V338.72C67.3085 339.047 67.4023 339.368 67.5798 339.643C67.7574 339.919 68.011 340.136 68.31 340.27L92.55 354.27C93.468 354.687 94.4711 354.882 95.4785 354.841C96.4859 354.799 97.4695 354.521 98.35 354.03L121.76 340.5C122.75 339.92 123.23 339.18 123.17 338.49Z" fill="#396CAA"/>
<path d="M95.24 325.8C94.1519 325.816 93.0842 326.097 92.13 326.62L86.08 330.11H67.31V338.71C67.3085 339.037 67.4023 339.358 67.5798 339.633C67.7574 339.909 68.011 340.126 68.31 340.26L92.55 354.26C93.3796 354.687 94.3085 354.884 95.24 354.83V325.8Z" fill="url(#paint10_radial_192_441)"/>
<path d="M69.44 330.1H67.31V338.7C67.3085 339.027 67.4023 339.348 67.5798 339.623C67.7574 339.899 68.011 340.116 68.31 340.25L69.44 340.91V330.1Z" fill="#D4ECFF"/>
<path d="M92.92 354.43C94.4161 354.99 96.064 354.99 97.56 354.43V344.61H92.92V354.43Z" fill="#5793CE"/>
<path d="M92.55 345.68L68.31 331.68C66.82 330.82 67.01 329.32 68.73 328.33L92.13 314.82C93.0126 314.329 93.9977 314.052 95.0065 314.011C96.0154 313.969 97.02 314.164 97.94 314.58L122.17 328.58C123.66 329.44 123.48 330.94 121.76 331.93L98.35 345.44C97.4695 345.931 96.486 346.209 95.4786 346.251C94.4712 346.292 93.4681 346.097 92.55 345.68Z" fill="url(#paint11_linear_192_441)"/>
<path d="M121.76 330.28L98.35 343.79C97.4695 344.281 96.486 344.559 95.4786 344.601C94.4712 344.642 93.4681 344.447 92.55 344.03L68.31 330C68.0163 329.839 67.7632 329.613 67.57 329.34C67.4443 329.534 67.3634 329.754 67.3331 329.983C67.3027 330.212 67.3237 330.445 67.3946 330.666C67.4654 330.886 67.5843 331.087 67.7426 331.256C67.9009 331.424 68.0947 331.556 68.31 331.64L92.55 345.64C93.4681 346.057 94.4712 346.252 95.4786 346.211C96.486 346.169 97.4695 345.891 98.35 345.4L121.76 331.92C123.09 331.15 123.5 330.08 122.92 329.23C122.625 329.669 122.226 330.03 121.76 330.28Z" fill="white"/>
<path d="M114.26 340.7C114.238 341.042 114.136 341.374 113.962 341.669C113.789 341.964 113.548 342.215 113.26 342.4C112.72 342.71 112.26 342.45 112.26 341.83C112.282 341.488 112.384 341.156 112.558 340.861C112.731 340.566 112.972 340.315 113.26 340.13C113.82 339.82 114.26 340.08 114.26 340.7Z" fill="#D4ECFF"/>
<path d="M117.41 338.88C117.389 339.222 117.287 339.554 117.113 339.85C116.94 340.145 116.699 340.395 116.41 340.58C115.87 340.89 115.41 340.64 115.41 340.01C115.431 339.669 115.533 339.339 115.707 339.045C115.881 338.751 116.122 338.503 116.41 338.32C117 338 117.41 338.26 117.41 338.88Z" fill="white"/>
<path d="M120.56 337.06C120.54 337.402 120.439 337.735 120.265 338.031C120.092 338.326 119.85 338.576 119.56 338.76C119.02 339.07 118.56 338.82 118.56 338.19C118.581 337.849 118.683 337.519 118.857 337.225C119.031 336.931 119.272 336.683 119.56 336.5C120.12 336.18 120.56 336.44 120.56 337.06Z" fill="#D4ECFF"/>
<path d="M94 337L82.64 330.45C81.94 330.05 82.03 329.35 82.83 328.89L93.83 322.56C94.2413 322.33 94.701 322.2 95.1719 322.181C95.6427 322.162 96.1114 322.254 96.54 322.45L107.85 329C108.54 329.4 108.45 330.1 107.65 330.57L96.7 336.89C96.2899 337.118 95.832 337.247 95.3631 337.266C94.8942 337.285 94.4273 337.194 94 337Z" fill="url(#paint12_radial_192_441)"/>
<path d="M95.07 331.52L93.5 330.61C93.4 330.56 93.41 330.46 93.5 330.4L95 329.52C95.0589 329.49 95.124 329.475 95.19 329.475C95.256 329.475 95.3211 329.49 95.38 329.52L96.95 330.42C97.04 330.48 97.03 330.57 96.95 330.64L95.43 331.51C95.3747 331.539 95.3136 331.555 95.2512 331.557C95.1888 331.558 95.1268 331.546 95.07 331.52Z" fill="#D4ECFF"/>
<path d="M82.64 330.45L82.8 330.34L93.8 324.02C94.2105 323.789 94.6698 323.657 95.1406 323.636C95.6115 323.615 96.0806 323.706 96.51 323.9L107.82 330.43C108.46 329.97 108.5 329.35 107.82 328.98L96.5 322.45C96.0714 322.254 95.6026 322.162 95.1318 322.181C94.661 322.2 94.2013 322.33 93.79 322.56L82.79 328.89C82 329.35 81.94 330.05 82.64 330.45Z" fill="#396CAA"/>
</g>
<g clip-path="url(#clip4_192_441)">
<g opacity="0.2">
<path opacity="0.2" d="M386.368 62.7056L337.002 34.2235L386.368 5.74139L435.735 34.2235L386.368 62.7056ZM340.499 34.2235L386.368 60.6819L432.252 34.2235L386.368 7.78011L340.499 34.2235Z" fill="white"/>
<path opacity="0.2" d="M433.993 90.1534L384.627 61.6713L433.993 33.1892L483.36 61.6713L433.993 90.1534ZM388.124 61.6713L433.993 88.1446L479.832 61.6863L433.993 35.2429L388.124 61.6713Z" fill="white"/>
<path opacity="0.2" d="M291.118 62.6906L241.751 34.2085L291.118 5.7264L340.499 34.2085L291.118 62.6906ZM245.249 34.2085L291.118 60.6669L337.002 34.2085L291.118 7.78011L245.249 34.2085Z" fill="white"/>
<path opacity="0.2" d="M338.743 90.1534L289.377 61.6713L338.743 33.1892L388.124 61.6713L338.743 90.1534ZM292.874 61.6713L338.743 88.1446L384.627 61.6863L338.743 35.2429L292.874 61.6713Z" fill="white"/>
<path opacity="0.2" d="M386.368 117.616L337.002 89.134L386.368 60.6519L435.735 89.134L386.368 117.616ZM340.499 89.134L386.368 115.592L432.252 89.149L386.368 62.7056L340.499 89.134Z" fill="white"/>
<path opacity="0.2" d="M433.993 145.079L384.627 116.597L433.993 88.1146L483.375 116.597L433.993 145.079ZM388.124 116.597L433.993 143.055L479.832 116.612L433.993 90.1534L388.124 116.597Z" fill="white"/>
<path opacity="0.2" d="M195.867 62.6906L146.501 34.2085L195.867 5.7264L245.249 34.2085L195.867 62.6906ZM149.998 34.2085L195.867 60.6669L241.751 34.2085L195.867 7.78011L149.998 34.2085Z" fill="white"/>
<path opacity="0.2" d="M243.493 90.1534L194.126 61.6713L243.493 33.1892L292.874 61.6713L243.493 90.1534ZM197.653 61.6863L243.493 88.1446L289.377 61.6863L243.493 35.2429L197.653 61.6863Z" fill="white"/>
<path opacity="0.2" d="M291.118 117.616L241.751 89.134L291.118 60.6519L340.499 89.134L291.118 117.616ZM245.249 89.134L291.118 115.592L337.002 89.134L291.118 62.6906L245.249 89.134Z" fill="white"/>
<path opacity="0.2" d="M338.743 145.079L289.377 116.597L338.743 88.1446L388.124 116.627L338.743 145.079ZM292.874 116.597L338.743 143.07L384.627 116.612L338.743 90.1534L292.874 116.597Z" fill="white"/>
<path opacity="0.2" d="M386.368 172.542L337.002 144.06L386.368 115.577L435.75 144.06L386.368 172.542ZM340.499 144.06L386.368 170.518L432.252 144.075L386.368 117.616L340.499 144.06Z" fill="white"/>
<path opacity="0.2" d="M433.993 200.004L384.627 171.522L433.993 143.04L483.375 171.522L433.993 200.004ZM388.124 171.522L433.993 197.981L479.832 171.537L433.993 145.079L388.124 171.522Z" fill="white"/>
<path opacity="0.2" d="M100.617 62.6906L51.2505 34.2085L100.617 5.7264L149.998 34.2085L100.617 62.6906ZM54.7477 34.2085L100.617 60.6819L146.501 34.2235L100.617 7.76512L54.7477 34.2085Z" fill="white"/>
<path opacity="0.2" d="M148.242 90.1534L98.8757 61.6713L148.242 33.1892L197.623 61.6713L148.242 90.1534ZM102.373 61.6713L148.242 88.1446L194.126 61.6863L148.242 35.2279L102.373 61.6713Z" fill="white"/>
<path opacity="0.2" d="M195.867 117.616L146.501 89.134L195.867 60.6519L245.249 89.134L195.867 117.616ZM149.998 89.134L195.867 115.592L241.751 89.134L195.867 62.6906L149.998 89.134Z" fill="white"/>
<path opacity="0.2" d="M243.493 145.079L194.126 116.597L243.493 88.1146L292.874 116.597L243.493 145.079ZM197.653 116.612L243.523 143.07L289.407 116.612L243.493 90.1534L197.653 116.612Z" fill="white"/>
<path opacity="0.2" d="M291.118 172.542L241.751 144.06L291.118 115.577L340.499 144.06L291.118 172.542ZM245.249 144.06L291.118 170.518L337.002 144.06L291.118 117.616L245.249 144.06Z" fill="white"/>
<path opacity="0.2" d="M338.743 200.004L289.377 171.522L338.743 143.04L388.124 171.522L338.743 200.004ZM292.874 171.522L338.743 197.996L384.627 171.537L338.743 145.079L292.874 171.522Z" fill="white"/>
<path opacity="0.2" d="M386.368 227.467L337.002 198.985L386.368 170.503L435.75 198.985L386.368 227.467ZM340.499 198.985L386.368 225.443L432.252 198.985L386.368 172.542L340.499 198.985Z" fill="white"/>
<path opacity="0.2" d="M433.993 254.93L384.627 226.448L433.993 197.966L483.375 226.448L433.993 254.93ZM388.124 226.448L433.993 252.906L479.832 226.463L433.948 200.004L388.124 226.448Z" fill="white"/>
<path opacity="0.2" d="M5.36634 62.6906L-44 34.2235L5.36634 5.74139L54.7477 34.2235L5.36634 62.6906ZM-40.5028 34.2085L5.36634 60.6819L51.2505 34.2235L5.36634 7.76512L-40.5028 34.2085Z" fill="white"/>
<path opacity="0.2" d="M52.9916 90.1534L3.62524 61.6713L52.9916 33.1892L102.373 61.6713L52.9916 90.1534ZM7.12247 61.6713L52.9916 88.1446L98.8757 61.6863L52.9916 35.2279L7.12247 61.6713Z" fill="white"/>
<path opacity="0.2" d="M100.617 117.616L51.2505 89.134L100.617 60.6519L149.998 89.134L100.617 117.616ZM54.7477 89.134L100.617 115.607L146.501 89.149L100.617 62.6906L54.7477 89.134Z" fill="white"/>
<path opacity="0.2" d="M148.242 145.079L98.8757 116.597L148.242 88.1146L197.623 116.597L148.242 145.079ZM102.373 116.597L148.242 143.055L194.126 116.597L148.242 90.1534L102.373 116.597Z" fill="white"/>
<path opacity="0.2" d="M195.867 172.542L146.501 144.06L195.867 115.577L245.249 144.06L195.867 172.542ZM149.998 144.06L195.867 170.518L241.751 144.06L195.867 117.616L149.998 144.06Z" fill="white"/>
<path opacity="0.2" d="M243.493 200.004L194.126 171.522L243.493 143.04L292.874 171.522L243.493 200.004ZM197.623 171.522L243.493 197.981L289.377 171.522L243.493 145.079L197.623 171.522Z" fill="white"/>
<path opacity="0.2" d="M291.118 227.467L241.751 198.985L291.118 170.503L340.499 198.985L291.118 227.467ZM245.249 198.985L291.118 225.428L337.002 198.985L291.118 172.542L245.249 198.985Z" fill="white"/>
<path opacity="0.2" d="M338.743 254.93L289.377 226.448L338.743 197.966L388.124 226.448L338.743 254.93ZM292.874 226.448L338.743 252.906L384.627 226.463L338.743 200.004L292.874 226.448Z" fill="white"/>
<path opacity="0.2" d="M386.368 282.393L337.002 253.911L386.368 225.428L435.75 253.911L386.368 282.393ZM340.499 253.911L386.368 280.324L432.252 253.881L386.368 227.422L340.499 253.911Z" fill="white"/>
<path opacity="0.2" d="M433.993 309.855L384.627 281.373L433.993 252.891L483.375 281.373L433.993 309.855ZM388.124 281.373L433.993 307.817L479.832 281.388L433.948 254.93L388.124 281.373Z" fill="white"/>
<path opacity="0.2" d="M5.38135 117.616L-44 89.149L5.36634 60.6669L54.7477 89.149L5.38135 117.616ZM-40.5028 89.134L5.38135 115.607L51.2505 89.149L5.36634 62.6906L-40.5028 89.134Z" fill="white"/>
<path opacity="0.2" d="M53.0066 145.079L3.62524 116.597L52.9916 88.1146L102.373 116.597L53.0066 145.079ZM7.12247 116.597L53.0066 143.07L98.8757 116.612L52.9916 90.1534L7.12247 116.597Z" fill="white"/>
<path opacity="0.2" d="M100.632 172.542L51.2505 144.06L100.617 115.577L149.998 144.06L100.632 172.542ZM54.7477 144.06L100.632 170.518L146.501 144.06L100.617 117.616L54.7477 144.06Z" fill="white"/>
<path opacity="0.2" d="M148.257 200.004L98.8757 171.522L148.242 143.04L197.623 171.522L148.257 200.004ZM102.373 171.522L148.257 197.981L194.126 171.522L148.242 145.079L102.373 171.522Z" fill="white"/>
<path opacity="0.2" d="M195.882 227.467L146.501 198.985L195.867 170.503L245.249 198.985L195.882 227.467ZM149.998 198.985L195.882 225.428L241.751 198.985L195.867 172.542L149.998 198.985Z" fill="white"/>
<path opacity="0.2" d="M243.508 254.93L194.126 226.448L243.493 197.966L292.874 226.448L243.508 254.93ZM197.623 226.448L243.508 252.891L289.377 226.448L243.493 199.989L197.623 226.448Z" fill="white"/>
<path opacity="0.2" d="M291.133 282.393L241.751 253.911L291.118 225.428L340.499 253.911L291.133 282.393ZM245.249 253.911L291.133 280.324L337.002 253.881L291.118 227.422L245.249 253.911Z" fill="white"/>
<path opacity="0.2" d="M338.743 309.855L289.362 281.373L338.728 252.891L388.109 281.373L338.743 309.855ZM292.859 281.373L338.743 307.832L384.612 281.388L338.743 254.93L292.859 281.373Z" fill="white"/>
<path opacity="0.2" d="M386.383 337.288L337.002 308.806L386.368 280.324L435.75 308.806L386.383 337.288ZM340.499 308.806L386.383 335.264L432.252 308.806L386.368 282.363L340.499 308.806Z" fill="white"/>
<path opacity="0.2" d="M434.008 364.781L384.627 336.299L433.993 307.817L483.375 336.299L434.008 364.781ZM388.124 336.299L434.008 362.772L479.832 336.299L433.993 309.855L388.124 336.299Z" fill="white"/>
<path opacity="0.2" d="M5.38135 172.542L-44 144.075L5.38135 115.592L54.7477 144.075L5.38135 172.542ZM-40.5028 144.06L5.38135 170.533L51.2505 144.075L5.38135 117.616L-40.5028 144.06Z" fill="white"/>
<path opacity="0.2" d="M53.0066 200.004L3.62524 171.522L53.0066 143.04L102.373 171.522L53.0066 200.004ZM7.12247 171.522L53.0066 197.966L98.8757 171.522L53.0066 145.079L7.12247 171.522Z" fill="white"/>
<path opacity="0.2" d="M100.632 227.467L51.2505 198.985L100.632 170.503L149.998 198.985L100.632 227.467ZM54.7477 198.985L100.632 225.428L146.501 198.985L100.632 172.542L54.7477 198.985Z" fill="white"/>
<path opacity="0.2" d="M148.257 254.93L98.8757 226.448L148.257 197.966L197.623 226.448L148.257 254.93ZM102.373 226.448L148.257 252.891L194.126 226.448L148.257 199.989L102.373 226.448Z" fill="white"/>
<path opacity="0.2" d="M195.882 282.393L146.501 253.911L195.882 225.428L245.249 253.911L195.882 282.393ZM149.998 253.911L195.882 280.324L241.751 253.881L195.882 227.422L149.998 253.911Z" fill="white"/>
<path opacity="0.2" d="M243.508 309.855L194.126 281.373L243.508 252.891L292.874 281.373L243.508 309.855ZM197.653 281.373L243.538 307.832L289.407 281.388L243.538 254.93L197.653 281.373Z" fill="white"/>
<path opacity="0.2" d="M291.133 337.288L241.751 308.806L291.133 280.324L340.499 308.806L291.133 337.288ZM245.249 308.806L291.133 335.264L337.002 308.806L291.133 282.363L245.249 308.806Z" fill="white"/>
<path opacity="0.2" d="M338.743 364.766L289.362 336.284L338.743 307.802L388.109 336.284L338.743 364.766ZM292.859 336.284L338.743 362.772L384.612 336.314L338.743 309.855L292.859 336.284Z" fill="white"/>
<path opacity="0.2" d="M386.383 392.229L337.002 363.746L386.383 335.264L435.75 363.746L386.383 392.229ZM340.499 363.746L386.383 390.205L432.252 363.746L386.383 337.288L340.499 363.746Z" fill="white"/>
<path opacity="0.2" d="M5.38135 227.467L-44 199L5.38135 170.518L54.7477 199L5.38135 227.467ZM-40.5028 198.985L5.38135 225.443L51.2505 199L5.38135 172.542L-40.5028 198.985Z" fill="white"/>
<path opacity="0.2" d="M53.0066 254.93L3.62524 226.448L53.0066 197.966L102.373 226.448L53.0066 254.93ZM7.12247 226.448L53.0066 252.891L98.8757 226.448L53.0066 200.004L7.12247 226.448Z" fill="white"/>
<path opacity="0.2" d="M100.632 282.393L51.2505 253.911L100.632 225.428L149.998 253.911L100.632 282.393ZM54.7477 253.911L100.632 280.324L146.501 253.881L100.632 227.467L54.7477 253.911Z" fill="white"/>
<path opacity="0.2" d="M148.257 309.855L98.8757 281.373L148.257 252.891L197.623 281.373L148.257 309.855ZM102.373 281.373L148.257 307.832L194.126 281.373L148.257 254.93L102.373 281.373Z" fill="white"/>
<path opacity="0.2" d="M195.882 337.288L146.501 308.806L195.882 280.324L245.249 308.806L195.882 337.288ZM149.998 308.806L195.882 335.264L241.751 308.806L195.882 282.363L149.998 308.806Z" fill="white"/>
<path opacity="0.2" d="M243.508 364.766L194.126 336.284L243.508 307.802L292.874 336.284L243.508 364.766ZM197.623 336.284L243.508 362.772L289.377 336.314L243.508 309.855L197.623 336.284Z" fill="white"/>
<path opacity="0.2" d="M291.133 392.229L241.751 363.746L291.133 335.264L340.499 363.746L291.133 392.229ZM245.249 363.746L291.133 390.205L337.002 363.746L291.133 337.288L245.249 363.746Z" fill="white"/>
<path opacity="0.2" d="M5.38135 282.393L-44 253.911L5.38135 225.428L54.7477 253.911L5.38135 282.393ZM-40.5028 253.911L5.38135 280.324L51.2505 253.881L5.38135 227.467L-40.5028 253.911Z" fill="white"/>
<path opacity="0.2" d="M53.0066 309.84L3.62524 281.358L53.0066 252.876L102.373 281.358L53.0066 309.84ZM7.12247 281.358L53.0066 307.817L98.8757 281.373L53.0066 254.93L7.12247 281.358Z" fill="white"/>
<path opacity="0.2" d="M100.632 337.288L51.2505 308.806L100.632 280.324L149.998 308.806L100.632 337.288ZM54.7477 308.806L100.632 335.264L146.501 308.806L100.632 282.393L54.7477 308.806Z" fill="white"/>
<path opacity="0.2" d="M148.257 364.766L98.8757 336.284L148.257 307.802L197.623 336.284L148.257 364.766ZM102.373 336.284L148.257 362.772L194.126 336.314L148.257 309.855L102.373 336.284Z" fill="white"/>
<path opacity="0.2" d="M195.882 392.229L146.501 363.746L195.882 335.264L245.249 363.746L195.882 392.229ZM149.998 363.746L195.882 390.205L241.751 363.746L195.882 337.288L149.998 363.746Z" fill="white"/>
<path opacity="0.2" d="M5.38135 337.288L-44 308.806L5.38135 280.324L54.7477 308.806L5.38135 337.288ZM-40.5028 308.806L5.38135 335.294L51.2505 308.806L5.38135 282.393L-40.5028 308.806Z" fill="white"/>
<path opacity="0.2" d="M53.0066 364.766L3.62524 336.284L53.0066 307.802L102.373 336.284L53.0066 364.766ZM7.12247 336.284L53.0066 362.772L98.8757 336.314L53.0066 309.84L7.12247 336.284Z" fill="white"/>
<path opacity="0.2" d="M100.632 392.229L51.2505 363.746L100.632 335.264L149.998 363.746L100.632 392.229ZM54.7477 363.746L100.632 390.205L146.501 363.746L100.632 337.288L54.7477 363.746Z" fill="white"/>
<path opacity="0.2" d="M5.38135 392.229L-44 363.761L5.36634 335.279L54.7327 363.761L5.38135 392.229ZM-40.5028 363.746L5.38135 390.22L51.2505 363.761L5.38135 337.288L-40.5028 363.746Z" fill="white"/>
<path opacity="0.2" d="M195.867 178.313C199.614 178.313 202.652 175.279 202.652 171.537C202.652 167.795 199.614 164.762 195.867 164.762C192.12 164.762 189.083 167.795 189.083 171.537C189.083 175.279 192.12 178.313 195.867 178.313Z" fill="white"/>
<path opacity="0.2" d="M195.867 13.5515C199.614 13.5515 202.652 10.5179 202.652 6.77574C202.652 3.0336 199.614 0 195.867 0C192.12 0 189.083 3.0336 189.083 6.77574C189.083 10.5179 192.12 13.5515 195.867 13.5515Z" fill="white"/>
<path opacity="0.2" d="M100.617 343.074C104.364 343.074 107.401 340.041 107.401 336.299C107.401 332.557 104.364 329.523 100.617 329.523C96.87 329.523 93.8325 332.557 93.8325 336.299C93.8325 340.041 96.87 343.074 100.617 343.074Z" fill="white"/>
<path opacity="0.2" d="M386.383 398C390.13 398 393.167 394.966 393.167 391.224C393.167 387.482 390.13 384.449 386.383 384.449C382.636 384.449 379.599 387.482 379.599 391.224C379.599 394.966 382.636 398 386.383 398Z" fill="white"/>
<path opacity="0.2" d="M440.808 253.925C440.808 255.266 440.41 256.577 439.663 257.691C438.917 258.806 437.857 259.674 436.616 260.187C435.376 260.699 434.011 260.833 432.694 260.57C431.378 260.307 430.169 259.66 429.221 258.711C428.273 257.762 427.628 256.554 427.368 255.238C427.108 253.923 427.244 252.56 427.76 251.322C428.276 250.084 429.148 249.027 430.265 248.284C431.383 247.542 432.696 247.147 434.038 247.15C434.929 247.15 435.81 247.325 436.632 247.666C437.455 248.007 438.202 248.506 438.83 249.135C439.459 249.765 439.958 250.512 440.297 251.334C440.636 252.156 440.81 253.036 440.808 253.925Z" fill="white"/>
<path opacity="0.2" d="M345.527 308.806C345.53 310.147 345.135 311.46 344.39 312.576C343.646 313.693 342.586 314.563 341.346 315.078C340.106 315.593 338.741 315.728 337.423 315.467C336.106 315.206 334.896 314.561 333.946 313.612C332.996 312.664 332.35 311.455 332.088 310.139C331.827 308.823 331.963 307.46 332.478 306.221C332.993 304.982 333.865 303.924 334.983 303.181C336.101 302.438 337.415 302.042 338.758 302.045C340.553 302.045 342.275 302.758 343.545 304.025C344.814 305.293 345.527 307.013 345.527 308.806Z" fill="white"/>
<path opacity="0.2" d="M59.7758 89.149C59.7907 90.4922 59.4055 91.8095 58.6691 92.9336C57.9328 94.0577 56.8785 94.9378 55.6402 95.4622C54.4019 95.9865 53.0355 96.1314 51.7146 95.8785C50.3937 95.6256 49.1778 94.9863 48.2215 94.0417C47.2652 93.0971 46.6115 91.89 46.3436 90.5736C46.0757 89.2573 46.2056 87.8911 46.7168 86.6486C47.228 85.4061 48.0974 84.3434 49.2147 83.5955C50.3319 82.8476 51.6465 82.4483 52.9915 82.4482C54.7779 82.4481 56.4923 83.1517 57.7624 84.4062C59.0326 85.6607 59.7561 87.365 59.7758 89.149Z" fill="white"/>
</g>
</g>
<defs>
<linearGradient id="paint0_linear_192_441" x1="170.42" y1="200" x2="399.32" y2="200" gradientUnits="userSpaceOnUse">
<stop stop-color="#86B8E0"/>
<stop offset="0.12" stop-color="#98C4E7"/>
<stop offset="0.33" stop-color="#B2D6F2"/>
<stop offset="0.54" stop-color="#C5E2F9"/>
<stop offset="0.76" stop-color="#D0EAFE"/>
<stop offset="1" stop-color="#D4ECFF"/>
</linearGradient>
<radialGradient id="paint1_radial_192_441" cx="0" cy="0" r="1" gradientUnits="userSpaceOnUse" gradientTransform="translate(376.97 155.33) scale(222.97)">
<stop stop-color="#173D7A"/>
<stop offset="0.42" stop-color="#153B76"/>
<stop offset="0.82" stop-color="#0E336B"/>
<stop offset="1" stop-color="#092E63"/>
</radialGradient>
<radialGradient id="paint2_radial_192_441" cx="0" cy="0" r="1" gradientUnits="userSpaceOnUse" gradientTransform="translate(311.53 105.09) scale(180.76 180.76)">
<stop stop-color="#082C60"/>
<stop offset="0.49" stop-color="#072B5C"/>
<stop offset="0.94" stop-color="#052851"/>
<stop offset="1" stop-color="#05274F"/>
</radialGradient>
<radialGradient id="paint3_radial_192_441" cx="0" cy="0" r="1" gradientUnits="userSpaceOnUse" gradientTransform="translate(50586.3 -20592.1) scale(72496.8 45654.9)">
<stop stop-color="#173D7A"/>
<stop offset="0.42" stop-color="#153B76"/>
<stop offset="0.82" stop-color="#0E336B"/>
<stop offset="1" stop-color="#092E63"/>
</radialGradient>
<radialGradient id="paint4_radial_192_441" cx="0" cy="0" r="1" gradientUnits="userSpaceOnUse" gradientTransform="translate(63.52 136.52) scale(26.02 26.02)">
<stop stop-color="#274F89"/>
<stop offset="1" stop-color="#173D7A"/>
</radialGradient>
<linearGradient id="paint5_linear_192_441" x1="47.71" y1="127.08" x2="93.75" y2="127.08" gradientUnits="userSpaceOnUse">
<stop stop-color="#D4ECFF"/>
<stop offset="0.24" stop-color="#D0EAFE"/>
<stop offset="0.46" stop-color="#C5E2F9"/>
<stop offset="0.67" stop-color="#B2D6F2"/>
<stop offset="0.88" stop-color="#98C4E7"/>
<stop offset="1" stop-color="#86B8E0"/>
</linearGradient>
<radialGradient id="paint6_radial_192_441" cx="0" cy="0" r="1" gradientUnits="userSpaceOnUse" gradientTransform="translate(26.11 109.6) scale(47.03 47.03)">
<stop stop-color="#699DD1"/>
<stop offset="0.27" stop-color="#6396CC"/>
<stop offset="0.64" stop-color="#5184BD"/>
<stop offset="1" stop-color="#396CAA"/>
</radialGradient>
<radialGradient id="paint7_radial_192_441" cx="0" cy="0" r="1" gradientUnits="userSpaceOnUse" gradientTransform="translate(356.52 277.52) scale(26.02 26.02)">
<stop stop-color="#274F89"/>
<stop offset="1" stop-color="#173D7A"/>
</radialGradient>
<linearGradient id="paint8_linear_192_441" x1="340.71" y1="268.08" x2="386.75" y2="268.08" gradientUnits="userSpaceOnUse">
<stop stop-color="#D4ECFF"/>
<stop offset="0.24" stop-color="#D0EAFE"/>
<stop offset="0.46" stop-color="#C5E2F9"/>
<stop offset="0.67" stop-color="#B2D6F2"/>
<stop offset="0.88" stop-color="#98C4E7"/>
<stop offset="1" stop-color="#86B8E0"/>
</linearGradient>
<radialGradient id="paint9_radial_192_441" cx="0" cy="0" r="1" gradientUnits="userSpaceOnUse" gradientTransform="translate(319.11 250.6) scale(47.03 47.03)">
<stop stop-color="#699DD1"/>
<stop offset="0.27" stop-color="#6396CC"/>
<stop offset="0.64" stop-color="#5184BD"/>
<stop offset="1" stop-color="#396CAA"/>
</radialGradient>
<radialGradient id="paint10_radial_192_441" cx="0" cy="0" r="1" gradientUnits="userSpaceOnUse" gradientTransform="translate(68.85 327.66) scale(30.64 30.64)">
<stop stop-color="#699DD1"/>
<stop offset="0.27" stop-color="#6396CC"/>
<stop offset="0.64" stop-color="#5184BD"/>
<stop offset="1" stop-color="#396CAA"/>
</radialGradient>
<linearGradient id="paint11_linear_192_441" x1="74.63" y1="317.84" x2="122.62" y2="346.45" gradientUnits="userSpaceOnUse">
<stop stop-color="#D4ECFF"/>
<stop offset="0.2" stop-color="#D0EAFE"/>
<stop offset="0.39" stop-color="#C5E2F9"/>
<stop offset="0.57" stop-color="#B2D6F2"/>
<stop offset="0.74" stop-color="#98C4E7"/>
<stop offset="0.84" stop-color="#86B8E0"/>
</linearGradient>
<radialGradient id="paint12_radial_192_441" cx="0" cy="0" r="1" gradientUnits="userSpaceOnUse" gradientTransform="translate(95.24 329.73) scale(10.67)">
<stop stop-color="#173D7A"/>
<stop offset="0.42" stop-color="#153B76"/>
<stop offset="0.82" stop-color="#0E336B"/>
<stop offset="1" stop-color="#092E63"/>
</radialGradient>
<clipPath id="clip0_192_441">
<rect width="344.73" height="256.37" fill="white" transform="translate(42 65)"/>
</clipPath>
<clipPath id="clip1_192_441">
<rect width="40.34" height="55.75" fill="white" transform="translate(45 117)"/>
</clipPath>
<clipPath id="clip2_192_441">
<rect width="40.34" height="55.75" fill="white" transform="translate(338 258)"/>
</clipPath>
<clipPath id="clip3_192_441">
<rect width="58.49" height="56.95" fill="white" transform="translate(66 314)"/>
</clipPath>
<clipPath id="clip4_192_441">
<rect width="575" height="398" fill="white" transform="translate(-44)"/>
</clipPath>
</defs>
</svg>
