<svg xmlns="http://www.w3.org/2000/svg" height="800" width="1200" viewBox="-14.12172 -5.71285 122.38824 34.2771"><path d="M21.6964 16.3676c-.2038.5838-.3013 1.235-.3013 1.9388 0 2.3725 1.7813 4.4262 4.7488 4.4262 2.7225 0 4.28-1.14 4.9887-1.8975h.095l-.1387 1.4463h6.8325l1.6837-7.86c.0687-.34.1238-.665.1588-.975l-18.0675 2.9212m8.3887-4.5862c.1963-.9375.9113-1.68 1.8175-1.68.9238 0 1.3013.785 1.1375 1.5812l-.1175.5738 6.8188-.7138c-.5163-3.4825-3.7713-4.995-7.5525-4.995-5.6325 0-8.3238 2.8-8.855 5.2775l-.0738.35h6.7462zm1.8425 5.1775c-.2162 1.145-.9937 2.0475-2.0875 2.0475-1.03 0-1.4975-.845-1.3012-1.7663.1662-.775.9737-1.55 2.4725-1.55h1.1862zm18.2243-5.1996c-.4738.635-.8563 1.5512-1.1588 2.9337-.6475 2.9875.0575 3.7688.94 3.7688 1.1788 0 2.1763-1.12 2.6663-3.725.3137-1.66.2662-2.8538-.1838-3.3438l7.295-1.1812c.3575 1.1575.4163 2.6437.0738 4.34-1.0687 5.3662-4.3525 8.1812-8.0187 8.1812-1.66 0-3.4725-.4325-4.2263-2.2h-.155l-.5912 1.7475h-6.6013l1.96-9.2262 8-1.295m.395-3.4763c.5738-.4662 1.9888-1.55 4.1538-1.55 2.1987 0 3.8887.9563 4.7312 2.76l-16.8975 1.7588L44.8057.5655h7.2775L50.4444 8.283zM7.675 18.6414l.6388-3.0688h-8.26c-.5725 5.1963 3.5075 7.2788 8.7412 7.2788 5.0225 0 10.3338-1.6763 11.5163-6.2588L7.6749 18.6414m-.2737-5.1888c-2.9288-.9262-5.1388-2.6512-5.1388-5.9187C2.2624 2.7526 7.035.015 13.4212 0c5.41-.02 8.9912 2.235 8.36 6.7325h-7.6988c.2713-1.2287-.435-1.9262-1.7525-1.9262-1.0237 0-1.8162.53-1.9425 1.1512-.1787.89.3913 1.4513 1.7713 1.825 1.1637.3175 1.9587.5288 3.1025.855 3.2562.9325 4.8137 2.8763 5.2162 4.9113l-9.675.9975zm66.2087-6.4532c-1.6075 0-2.895.9262-3.7637 2.1187h-.1325l.225-1.9362h-6.7488l-.4112 1.965 3.725-.3888-.0825.3713-3.78.6137-2.6613 12.5375h7.2775s.7513-3.6025 1.2088-5.7125c.7337-3.3662 2.58-4.1275 3.81-4.1275 1.0387 0 1.6875.4688 1.8487.6l1.1913-5.6125c-.115-.065-.7363-.4287-1.7063-.4287m12.1698 5.868l.075-.3513c.2212-1.1675-.3388-2.0512-1.5625-2.0512-1.1275 0-2.0888.8087-2.4275 2.4025h3.915m5.4062 4.5687c-1.1262 3.1975-4.2237 5.2963-9.305 5.2963-4.23 0-8.3075-2.46-7.3012-8.095.8425-4.7438 5.2-7.9038 10.1837-7.9038 5.5813 0 8.0188 3.8325 7.1138 8.3l-.2175 1.0238H81.1759c-.0337.1175-.1662.605-.1662 1.14 0 1.34.7112 1.8087 1.6162 1.8087.935 0 1.7388-.5225 2.1813-1.57zm1.1879 3.5469h.1937c.2225 0 .4113-.0812.4113-.2887 0-.1475-.11-.2963-.4113-.2963-.0875 0-.1475.007-.1938.015zm0 .9325h-.2688v-1.6837c.1412-.0212.2737-.04.4763-.04.255 0 .4224.0525.525.1275.0986.0725.1524.1875.1524.3475 0 .2212-.1474.3562-.3287.41v.0138c.1475.0263.2487.16.2825.4087.04.2625.0813.3625.1075.4163h-.2825c-.0412-.0537-.0813-.2088-.1137-.43-.04-.215-.1488-.295-.3625-.295h-.1875v.725zm.2812-2.1537c-.665 0-1.2075.57-1.2075 1.2737 0 .7188.5425 1.2838 1.2138 1.2838.6712.006 1.2075-.565 1.2075-1.2763 0-.7112-.5363-1.2812-1.2075-1.2812h-.006zm.006-.235c.8263 0 1.4837.6712 1.4837 1.5087 0 .8525-.6574 1.5188-1.49 1.5188-.825 0-1.4962-.6663-1.4962-1.5188 0-.8375.6713-1.5087 1.4963-1.5087h.006z" fill="#e50000"/></svg>